<?xml version="1.0" encoding="UTF-8" standalone="no"?>
<!-- Created with Inkscape (http://www.inkscape.org/) -->

<svg
   width="256"
   height="256"
   viewBox="0 0 67.733333 67.733334"
   version="1.1"
   id="svg1"
   inkscape:version="1.3.2 (091e20e, 2023-11-25, custom)"
   sodipodi:docname="logo.svg"
   inkscape:export-filename="logo.png"
   inkscape:export-xdpi="384"
   inkscape:export-ydpi="384"
   xmlns:inkscape="http://www.inkscape.org/namespaces/inkscape"
   xmlns:sodipodi="http://sodipodi.sourceforge.net/DTD/sodipodi-0.dtd"
   xmlns="http://www.w3.org/2000/svg"
   xmlns:svg="http://www.w3.org/2000/svg">
  <sodipodi:namedview
     id="namedview1"
     pagecolor="#ffffff"
     bordercolor="#000000"
     borderopacity="0.25"
     inkscape:showpageshadow="2"
     inkscape:pageopacity="0.0"
     inkscape:pagecheckerboard="0"
     inkscape:deskcolor="#d1d1d1"
     inkscape:document-units="mm"
     inkscape:zoom="2"
     inkscape:cx="37.25"
     inkscape:cy="228.25"
     inkscape:window-width="2496"
     inkscape:window-height="1558"
     inkscape:window-x="-11"
     inkscape:window-y="-11"
     inkscape:window-maximized="1"
     inkscape:current-layer="layer1" />
  <defs
     id="defs1" />
  <g
     inkscape:label="Layer 1"
     inkscape:groupmode="layer"
     id="layer1"
     transform="translate(-56.952932,-95.97159)">
    <rect
       style="opacity:1;fill:#225500;stroke:none;stroke-width:6.00001;stroke-dasharray:none;fill-opacity:1"
       id="rect8"
       width="67.73333"
       height="67.73333"
       x="56.952927"
       y="95.971588" />
    <path
       style="font-size:19.7556px;font-family:Calibri;-inkscape-font-specification:Calibri;stroke-width:0.529167;stroke-dasharray:0.352776, 0.352776;fill:#f9f9f9"
       d="m 103.69643,133.03413 q 0.31705,-0.13593 0.2944,-0.54351 -0.0235,-0.38496 -0.54351,-1.26817 -0.52085,-0.90584 -0.86055,-1.10966 -0.31705,-0.20378 -0.58879,0 l -4.823616,3.51015 0.634076,-5.93328 q 0.06785,-0.3397 -0.294395,-0.52087 -0.362336,-0.18124 -1.404057,-0.18124 -1.041721,0 -1.404057,0.18124 -0.362336,0.18124 -0.294395,0.52087 l 0.634099,5.93328 -4.800984,-3.51015 q -0.27174,-0.20378 -0.611421,0 -0.339705,0.20377 -0.860554,1.10966 -0.520872,0.88321 -0.543527,1.26817 0,0.40765 0.31705,0.54351 l 5.457715,2.42314 -5.457715,2.40047 q -0.31705,0.15847 -0.31705,0.54351 0.02348,0.40764 0.543527,1.29083 0.520849,0.88321 0.860554,1.087 0.339681,0.20378 0.611421,0 l 4.800984,-3.48747 -0.634099,5.91062 q -0.06785,0.36234 0.294395,0.54351 0.362336,0.18123 1.404057,0.18123 1.041721,0 1.404057,-0.18123 0.362336,-0.18124 0.294395,-0.54351 l -0.634076,-5.91062 4.823616,3.48747 q 0.27174,0.20378 0.58879,0 0.3397,-0.20377 0.86055,-1.10963 0.52087,-0.86056 0.54351,-1.2682 0.0235,-0.38497 -0.2944,-0.54351 l -5.45769,-2.40047 z"
       id="text1"
       inkscape:transform-center-x="-3.4639143"
       inkscape:transform-center-y="9.237102"
       aria-label="*" />
    <path
       id="path1"
       style="fill:none;stroke:#ffffff;stroke-width:6;stroke-dasharray:none"
       d="m 67.793604,119.44824 10.441153,10.44115 a 18.853422,18.853422 0 0 0 4.687448,18.71398 18.853422,18.853422 0 0 0 26.662695,3.7e-4 18.853422,18.853422 0 0 0 0,-26.66306 18.853422,18.853422 0 0 0 -18.751981,-4.72471 L 80.429398,106.81245 Z" />
    <path
       id="path5"
       style="opacity:1;fill:#ffffff;stroke:none;stroke-width:6.00001;stroke-dasharray:none"
       d="M 77.453489 135.42861 A 18.607506 18.607506 0 0 0 96.053388 153.92516 A 18.607506 18.607506 0 0 0 114.65329 135.42861 L 77.453489 135.42861 z " />
    <path
       id="path6"
       style="opacity:1;fill:#225500;stroke:none;stroke-width:6.00001;stroke-dasharray:none"
       d="M 93.939822 135.42861 L 94.0039 135.45704 L 88.546352 137.85792 C 88.334986 137.96357 88.229059 138.14435 88.229059 138.40104 C 88.244712 138.6728 88.425998 139.10313 88.772695 139.69192 C 89.119928 140.28072 89.406638 140.64333 89.633108 140.77919 C 89.859562 140.91504 90.06328 140.91504 90.24444 140.77919 L 95.045697 137.29155 L 94.411627 143.2023 C 94.366394 143.44386 94.464687 143.62516 94.706183 143.74593 C 94.94774 143.86675 95.415752 143.9268 96.110232 143.9268 C 96.804712 143.9268 97.272723 143.86675 97.51428 143.74593 C 97.755838 143.62511 97.853613 143.44381 97.808319 143.2023 L 97.17425 137.29155 L 101.99773 140.77919 C 102.17889 140.91504 102.37547 140.91504 102.58684 140.77919 C 102.81331 140.64334 103.10002 140.2736 103.44725 139.6697 C 103.7945 139.09599 103.97579 138.6728 103.99089 138.40104 C 104.00655 138.1444 103.90827 137.96362 103.69633 137.85792 L 98.238784 135.45704 L 98.302863 135.42861 L 93.939822 135.42861 z " />
  </g>
</svg>
